<?xml version="1.0" standalone="no"?>
<!DOCTYPE svg PUBLIC "-//W3C//DTD SVG 20010904//EN"
 "http://www.w3.org/TR/2001/REC-SVG-20010904/DTD/svg10.dtd">
<svg version="1.0" xmlns="http://www.w3.org/2000/svg"
 width="200.000000pt" height="200.000000pt" viewBox="0 0 200.000000 200.000000"
 preserveAspectRatio="xMidYMid meet">

<g transform="translate(0.000000,200.000000) scale(0.100000,-0.100000)"
fill="#000000" stroke="none">
<path d="M831 1979 c-78 -31 -180 -135 -211 -214 -21 -52 -25 -84 -29 -230
l-6 -170 -140 -5 c-131 -5 -144 -7 -205 -36 -167 -81 -262 -268 -226 -443 28
-136 107 -234 234 -294 63 -30 75 -32 204 -35 l136 -4 4 -132 c3 -123 5 -135
35 -199 38 -80 109 -153 184 -191 49 -24 63 -26 184 -26 122 0 135 2 184 26
29 15 75 49 102 76 88 88 119 175 119 339 l0 107 138 4 c171 6 225 24 313 106
216 199 165 540 -99 665 -64 31 -73 32 -209 35 l-143 3 0 155 c0 130 -3 164
-21 216 -36 107 -105 187 -206 238 -42 22 -63 25 -168 27 -102 2 -128 0 -174
-18z m245 -104 c109 -32 187 -139 186 -255 0 -77 -19 -125 -69 -181 -49 -54
-104 -81 -180 -87 l-63 -5 0 77 0 76 31 0 c106 0 168 113 104 189 -50 59 -128
60 -180 1 -19 -21 -20 -38 -23 -305 l-3 -283 -69 -56 c-38 -31 -71 -56 -74
-56 -4 0 -6 157 -6 348 l0 348 26 52 c60 121 189 176 320 137z m-476 -730 l0
-75 -99 0 c-153 0 -201 -27 -201 -113 0 -40 5 -53 29 -78 33 -33 30 -33 236
-29 100 1 159 7 176 15 14 8 108 77 210 155 101 79 211 155 244 171 60 29 60
29 259 29 184 0 203 -2 244 -21 205 -100 209 -375 8 -482 -35 -18 -62 -22
-178 -25 l-138 -4 0 75 0 74 115 5 c126 5 156 17 183 72 29 59 -12 136 -79
150 -51 10 -291 7 -331 -4 -23 -7 -111 -68 -225 -157 -104 -81 -213 -161 -243
-177 l-55 -31 -215 0 c-237 0 -240 1 -316 68 -110 96 -112 278 -6 384 60 60
100 71 250 72 l132 1 0 -75z m639 -866 c-26 -60 -101 -130 -157 -147 -55 -17
-142 -15 -186 3 -54 23 -116 84 -142 140 -21 43 -24 65 -24 168 l0 117 75 0
75 0 0 -100 c0 -114 12 -150 60 -175 37 -19 73 -19 111 1 53 27 59 59 59 306
l1 223 72 56 72 55 3 -298 c2 -287 1 -301 -19 -349z"/>
</g>
</svg>
