<svg width="2060" height="2074" xmlns="http://www.w3.org/2000/svg" xmlns:xlink="http://www.w3.org/1999/xlink" xml:space="preserve" overflow="hidden"><defs><clipPath id="clip0"><rect x="4310" y="635" width="2060" height="2074"/></clipPath></defs><g clip-path="url(#clip0)" transform="translate(-4310 -635)"><path d="M4324 1672C4324 1107.01 4778.88 649 5340 649 5901.12 649 6356 1107.01 6356 1672 6356 2236.99 5901.12 2695 5340 2695 4778.88 2695 4324 2236.99 4324 1672Z" stroke="#000000" stroke-width="27.5" stroke-linejoin="round" stroke-miterlimit="10" fill="none" fill-rule="evenodd"/><path d="M4358 1671C4358 1124.24 4798.33 681 5341.5 681 5884.67 681 6325 1124.24 6325 1671 6325 2217.76 5884.67 2661 5341.5 2661 4798.33 2661 4358 2217.76 4358 1671Z" fill="#80D8FF" fill-rule="evenodd"/><path d="M5203.07 1170.88C5190.4 1170.88 5177.49 1171.48 5164.34 1172.68L5167.7 1172.68 5167.7 1636.02 5171.28 1640.2 5171.28 1178.49 5209.73 1177.6C5228.84 1177.6 5244.63 1179.08 5257.1 1182.04L5261.9 1183.32 5257.08 1180.66C5243.54 1174.14 5225.54 1170.88 5203.07 1170.88ZM5399.85 1134.17 5418.53 1151.25C5397.52 1180.49 5375.82 1225.2 5353.42 1285.39L5347.61 1293.57 5325.1 1279.19 5327.55 1267.38C5349.07 1207.11 5370.3 1164.69 5391.22 1140.09ZM4843.84 1115.36 5390.72 1115.36C5387.35 1129.06 5385.38 1136.49 5384.83 1137.66L5355.6 1187.9C5344.97 1208.23 5335.39 1232.02 5326.88 1259.25L5321.17 1268.43 5304.34 1261.8 5302.64 1254.4C5300.05 1244.25 5297.19 1235.11 5294.04 1227L5293.64 1226.01 5289.68 1224.21C5263.06 1212.84 5237.41 1207.15 5212.73 1207.15 5206.88 1207.15 5202.99 1207.29 5201.06 1207.58L5202.81 1638.11 5272.62 1732.37 5034.7 1732.37 5019.82 1702.82 5230.11 1702.82 5204.62 1679.16 5219.51 1696.55 5000.57 1696.55 5062.03 1631.95 5062.03 1208.19 5039.82 1208.05C5012.17 1208.05 4992.86 1213.15 4981.88 1223.35 4970.9 1233.55 4964.11 1255.17 4961.51 1288.2L4932.52 1288.2C4935.96 1245.21 4945.78 1216.18 4962 1201.11 4978.22 1186.03 5001.33 1178.5 5031.33 1178.5L5066.23 1178.99 5062.03 1178.92 5062.03 1174.39C5052.32 1173.25 5041.11 1172.68 5028.4 1172.68 4993.24 1172.68 4968.19 1179.56 4953.23 1193.34 4938.28 1207.12 4929.85 1233.91 4927.95 1273.7L4907.09 1273.7C4893.32 1229.18 4873.38 1182.13 4847.29 1132.57Z" fill="#5B9BD5" fill-rule="evenodd"/><path d="M5203.02 1173.38 5184.02 1173.87 5170.21 1174.8 5170.21 1176.28 5170.32 1176.21C5170.61 1176.08 5170.94 1176 5171.27 1175.99L5209.71 1175.12 5223.5 1175.37 5234.47 1176.13 5232.94 1175.81 5226.14 1174.78 5218.89 1174.04 5211.17 1173.55ZM5203.12 1168.38 5211.49 1168.56 5219.4 1169.07 5226.9 1169.83 5233.97 1170.92 5240.68 1172.33 5246.95 1174.06 5252.84 1176.08 5258.29 1178.49 5263.16 1181.18C5264.27 1181.79 5264.75 1183.13 5264.27 1184.31 5263.8 1185.48 5262.52 1186.11 5261.3 1185.78L5256.67 1184.51 5246.84 1182.6 5235.78 1181.24 5223.41 1180.37 5209.83 1180.12 5173.83 1180.94 5173.83 1640.24C5173.83 1641.29 5173.18 1642.22 5172.2 1642.59 5171.23 1642.95 5170.12 1642.67 5169.44 1641.88L5165.82 1637.69C5165.42 1637.24 5165.21 1636.66 5165.21 1636.06L5165.21 1175.18 5164.39 1175.18C5163.05 1175.18 5161.94 1174.11 5161.9 1172.76 5161.85 1171.42 5162.88 1170.28 5164.23 1170.19L5183.89 1168.87ZM5399.63 1137.35 5392.94 1141.95 5389.33 1146.43 5385.45 1151.6 5381.55 1157.23 5377.66 1163.23 5373.74 1169.69 5369.78 1176.49 5365.87 1183.76 5361.89 1191.47 5357.91 1199.61 5353.93 1208.13 5349.95 1217.09 5345.96 1226.5 5341.98 1236.27 5337.98 1246.57 5333.93 1257.15 5329.99 1268.11 5327.94 1278.06 5346.98 1290.23 5351.23 1284.24 5359.51 1262.62 5367.79 1242.18 5376.07 1223.18 5384.29 1205.61 5392.45 1189.48 5400.51 1174.82 5408.58 1161.59 5415.3 1151.69ZM4846.89 1117.86 4849.67 1131.74 4859.08 1149.96 4867.97 1168.25 4876.37 1186.3 4884.14 1204.11 4891.35 1221.66 4898 1239.03 4904.09 1256.16 4908.96 1271.24 4925.64 1271.24 4926.54 1259.12 4928.19 1245.84 4930.48 1233.78 4933.42 1222.95 4936.97 1213.26 4941.19 1204.79 4945.88 1197.79C4945.95 1197.68 4946.03 1197.59 4946.11 1197.49L4951.42 1191.68C4951.51 1191.58 4951.61 1191.49 4951.71 1191.41L4958.04 1186.41 4965.39 1182.02 4973.55 1178.43 4982.71 1175.43 4992.77 1173.15 5003.74 1171.5 5015.65 1170.49 5028.49 1170.18 5037.8 1170.31 5046.57 1170.62 5054.77 1171.19 5062.33 1171.94C5063.61 1172.07 5064.58 1173.15 5064.58 1174.43L5064.58 1176.47 5066.29 1176.49 5066.3 1176.49 5066.3 1176.49 5066.31 1176.49C5067.69 1176.51 5068.79 1177.65 5068.77 1179.03 5068.75 1180.41 5067.62 1181.51 5066.24 1181.49L5031.42 1181.05 5020.65 1181.42 5010.59 1182.45 5001.17 1184.16 4992.41 1186.51 4984.32 1189.6 4976.82 1193.34 4970.05 1197.73 4963.74 1202.94 4958.34 1208.84 4953.3 1216.2 4948.79 1224.89 4944.92 1234.89 4941.53 1246.26 4938.8 1259 4936.63 1272.99 4935.35 1285.74 4959.26 1285.74 4960.23 1276.01 4961.82 1265.13 4963.8 1255.2 4966.23 1246.39 4969.08 1238.6 4972.35 1231.83 4975.85 1226.39C4975.93 1226.28 4976.01 1226.17 4976.1 1226.07L4980.04 1221.7C4980.13 1221.59 4980.23 1221.49 4980.34 1221.41L4985.13 1217.65 4990.71 1214.39 4997.01 1211.67 5004.12 1209.42 5011.9 1207.77 5020.46 1206.5 5029.77 1205.81 5039.85 1205.56 5062.1 1205.74C5063.48 1205.75 5064.58 1206.87 5064.58 1208.24L5064.58 1631.99C5064.58 1632.63 5064.33 1633.25 5063.89 1633.72L5006.42 1694.06 5214.09 1694.06 5202.75 1680.81C5201.88 1679.8 5201.96 1678.29 5202.91 1677.38 5203.87 1676.46 5205.37 1676.45 5206.35 1677.35L5231.85 1701.04C5232.6 1701.74 5232.85 1702.82 5232.47 1703.78 5232.1 1704.74 5231.17 1705.37 5230.14 1705.37L5023.89 1705.37 5036.25 1729.87 5267.68 1729.87 5200.82 1639.61C5200.51 1639.18 5200.33 1638.66 5200.33 1638.13L5198.58 1207.63C5198.58 1206.34 5199.55 1205.26 5200.82 1205.13L5202.77 1204.93 5205.36 1204.81 5208.71 1204.68 5212.84 1204.68 5222.3 1204.94 5231.8 1205.77 5241.44 1207.1 5251.13 1209.01 5260.87 1211.47 5270.72 1214.44 5280.7 1217.92 5290.75 1221.97 5294.69 1223.78C5295.25 1224.04 5295.69 1224.49 5295.93 1225.05L5296.43 1226.19 5298.77 1232.53 5300.98 1239.29 5303.06 1246.34 5305.08 1253.85 5306.53 1259.96 5320.19 1265.34 5324.61 1258.24 5331.12 1238.61 5338.16 1220 5345.65 1202.71 5353.48 1186.67 5382.54 1136.65 5382.71 1136.14 5383.12 1134.92 5383.68 1133 5384.35 1130.61 5385.16 1127.49 5386.09 1123.89 5387.15 1119.58 5387.58 1117.87ZM4843.84 1112.86 5390.77 1112.87C5391.54 1112.87 5392.26 1113.22 5392.74 1113.83 5393.21 1114.43 5393.38 1115.22 5393.2 1115.97L5392.01 1120.78 5390.95 1125.09 5390 1128.74 5389.19 1131.87 5388.49 1134.36 5387.92 1136.31 5387.45 1137.72 5387.2 1138.47C5387.15 1138.63 5387.08 1138.79 5386.99 1138.94L5381.03 1149.21 5381.34 1148.76 5385.33 1143.43 5389.27 1138.53C5389.43 1138.34 5389.6 1138.17 5389.81 1138.03L5398.43 1132.11C5399.39 1131.45 5400.68 1131.54 5401.53 1132.32L5420.27 1149.46C5421.19 1150.3 5421.35 1151.68 5420.65 1152.71L5412.71 1164.4 5404.78 1177.42 5396.84 1191.88 5388.75 1207.87 5380.6 1225.3 5372.37 1244.18 5364.15 1264.49 5355.79 1286.32C5355.72 1286.52 5355.62 1286.71 5355.5 1286.88L5349.68 1295.06C5348.91 1296.15 5347.42 1296.44 5346.3 1295.72L5323.8 1281.35C5322.92 1280.79 5322.49 1279.75 5322.7 1278.74L5325.13 1266.93 5325.17 1266.8 5323.33 1269.75C5322.69 1270.78 5321.41 1271.2 5320.29 1270.76L5303.48 1264.13C5302.72 1263.83 5302.15 1263.18 5301.96 1262.38L5300.21 1255.01 5298.23 1247.64 5296.18 1240.7 5294.02 1234.08 5291.74 1227.93 5288.66 1226.51 5278.84 1222.56 5269.07 1219.17 5259.42 1216.26 5249.91 1213.85 5240.48 1212.01 5231.11 1210.72 5221.87 1209.92 5212.7 1209.68 5208.71 1209.68 5205.55 1209.8 5203.59 1209.9 5205.33 1637.29 5274.65 1730.88C5275.21 1731.64 5275.3 1732.65 5274.88 1733.49 5274.45 1734.34 5273.59 1734.87 5272.64 1734.87L5034.71 1734.87C5033.76 1734.87 5032.9 1734.34 5032.47 1733.49L5017.6 1703.99C5017.21 1703.22 5017.25 1702.3 5017.7 1701.56 5018.16 1700.82 5018.96 1700.37 5019.83 1700.37L5223.78 1700.37 5221.35 1698.11 5220.87 1698.66C5220.47 1698.91 5220.01 1699.06 5219.52 1699.06L5000.58 1699.06C4999.58 1699.06 4998.68 1698.46 4998.28 1697.54 4997.89 1696.62 4998.08 1695.56 4998.77 1694.83L5059.58 1630.99 5059.58 1210.72 5039.81 1210.56 5029.89 1210.8 5020.83 1211.49 5012.64 1212.72 5005.17 1214.31 4998.53 1216.44 4992.7 1218.97 4987.66 1221.96 4983.62 1225.19 4979.95 1229.27 4976.56 1234.53 4973.58 1240.76 4970.93 1248.1 4968.62 1256.53 4966.72 1266.1 4965.18 1276.73 4964.01 1288.49C4963.88 1289.77 4962.8 1290.74 4961.52 1290.74L4932.58 1290.74C4931.88 1290.74 4931.2 1290.44 4930.73 1289.92 4930.25 1289.4 4930.02 1288.7 4930.09 1287.99L4931.66 1272.49 4933.86 1258.24 4936.64 1245.22 4940.12 1233.47 4944.12 1223.09 4948.86 1213.91 4954.2 1206.02 4960.17 1199.43C4960.25 1199.35 4960.34 1199.26 4960.43 1199.19L4966.87 1193.88 4974.09 1189.15 4982.09 1185.13 4990.62 1181.85 4999.87 1179.33 5009.7 1177.53 5020.14 1176.44 5031.25 1176.06 5056.29 1176.37 5054.27 1176.17 5046.22 1175.61 5037.62 1175.3 5028.42 1175.18 5015.77 1175.49 5004.17 1176.48 4993.52 1178.09 4983.82 1180.31 4975.11 1183.18 4967.4 1186.59 4960.62 1190.7 4954.98 1195.2 4949.93 1200.73 4945.35 1207.57 4941.45 1215.48 4938.12 1224.66 4935.31 1235.08 4933.1 1246.77 4931.5 1259.74 4930.45 1273.93C4930.35 1275.23 4929.27 1276.24 4927.96 1276.24L4907.14 1276.24C4906.06 1276.24 4905.1 1275.54 4904.77 1274.51L4899.33 1257.7 4893.29 1240.7 4886.68 1223.45 4879.52 1206.01 4871.79 1188.31 4863.44 1170.36 4854.58 1152.15 4845.07 1133.72C4844.96 1133.51 4844.89 1133.29 4844.84 1133.06L4841.39 1115.85C4841.24 1115.12 4841.43 1114.36 4841.91 1113.78 4842.38 1113.2 4843.09 1112.86 4843.84 1112.86Z" fill="#5B9BD5" fill-rule="evenodd"/><path d="M5182.21 1150.02C5169.53 1150.02 5156.62 1150.62 5143.48 1151.81L5146.84 1151.81 5146.84 1615.15 5150.42 1619.34 5150.42 1157.63 5188.86 1156.74C5207.97 1156.74 5223.77 1158.22 5236.24 1161.17L5241.04 1162.46 5236.21 1159.8C5222.68 1153.28 5204.68 1150.02 5182.21 1150.02ZM5378.98 1113.3 5397.66 1130.39C5376.66 1159.62 5354.95 1204.34 5332.56 1264.53L5326.75 1272.7 5304.24 1258.33 5306.69 1246.51C5328.21 1186.25 5349.43 1143.82 5370.36 1119.23ZM4822.98 1094.5 5369.85 1094.5C5366.48 1108.19 5364.52 1115.62 5363.96 1116.8L5334.73 1167.04C5324.1 1187.37 5314.53 1211.16 5306.01 1238.39L5300.3 1247.57 5283.47 1240.94 5281.77 1233.54C5279.19 1223.38 5276.32 1214.25 5273.17 1206.13L5272.77 1205.14 5268.82 1203.34C5242.19 1191.97 5216.54 1186.29 5191.86 1186.29 5186.02 1186.29 5182.13 1186.43 5180.19 1186.72L5181.94 1617.24 5251.75 1711.5 5013.83 1711.5 4998.96 1681.95 5209.25 1681.95 5183.76 1658.29 5198.64 1675.68 4979.71 1675.68 5041.17 1611.09 5041.17 1187.33 5018.95 1187.18C4991.31 1187.18 4972 1192.29 4961.02 1202.49 4950.03 1212.69 4943.24 1234.31 4940.65 1267.33L4911.66 1267.33C4915.09 1224.35 4924.92 1195.32 4941.14 1180.24 4957.35 1165.17 4980.46 1157.63 5010.47 1157.63L5045.36 1158.13 5041.17 1158.06 5041.17 1153.53C5031.46 1152.38 5020.25 1151.81 5007.54 1151.81 4972.38 1151.81 4947.32 1158.7 4932.37 1172.48 4917.42 1186.26 4908.99 1213.04 4907.09 1252.84L4886.23 1252.84C4872.45 1208.31 4852.52 1161.27 4826.43 1111.71Z" stroke="#FFFFFF" stroke-width="5" stroke-linejoin="round" stroke-miterlimit="10" fill="#262626" fill-rule="evenodd"/><text fill="#000000" fill-opacity="0" font-family="Arial,Arial_MSFontService,sans-serif" font-size="617.005" x="4822.98" y="1634.38">T</text><path d="M5670.68 1877.31C5649.98 1881.55 5620.87 1883.67 5583.36 1883.67 5563.07 1883.67 5547.85 1883.16 5537.69 1882.14L5495.16 1878.23 5495.16 2082.24 5500.54 2088.01 5500.54 1881.35 5522.83 1882.33C5560.22 1885.01 5588.02 1886.36 5606.21 1886.36 5633.35 1886.36 5654.84 1883.52 5670.68 1877.86ZM5330.22 1561.29 5554.74 1561.29 5495.16 1632.19 5495.16 1810.87C5496.96 1811.19 5498.76 1811.56 5500.54 1811.99L5500.54 1629.23 5556.93 1576.65 5575.44 1593.27 5530.09 1641.83 5530.09 1813.38 5535.95 1813.92C5557.57 1815.94 5579.19 1816.95 5600.82 1816.95 5631.19 1816.95 5654.48 1815.84 5670.68 1813.62L5670.68 1623.57 5616.97 1561.29 5838.28 1561.29 5777.7 1632.38 5777.7 2082.41 5782.17 2087.47 5782.17 1630.23 5841.15 1576.65 5856.51 1595.77 5811.73 1641.88 5811.73 2082.93 5884.61 2178.29 5643.2 2178.29 5627.2 2148.74 5841.22 2148.74 5816.11 2125.84 5830.82 2142.47 5610.36 2142.47 5670.68 2078.06 5670.68 1904.97C5652.97 1910.77 5630.56 1913.67 5603.47 1913.67 5584.48 1913.67 5565.05 1912.93 5545.16 1911.45L5530.09 1910.15 5530.09 2082.92 5602.74 2178.29 5362.56 2178.29 5346.03 2148.74 5560.17 2148.74 5542.52 2133.12 5551.22 2142.47 5330.22 2142.47 5389.05 2078.01 5389.05 1899.26C5373.66 1899.26 5358.03 1908.92 5342.17 1928.23L5321 1918.17C5337.09 1894.44 5355.07 1879.65 5374.97 1873.8L5378.29 1872.95 5375.88 1873.35C5357.07 1877.14 5339.25 1889.15 5322.4 1909.36L5304.76 1899.47C5323.59 1849.87 5351.69 1821.41 5389.05 1814.1L5389.05 1627.98Z" fill="#5B9BD5" fill-rule="evenodd"/><path d="M5497.67 1880.97 5497.67 2081.3 5498.05 2081.71 5498.05 1881.35 5498.12 1881.01ZM5670.22 1874.85C5670.95 1874.71 5671.71 1874.91 5672.28 1875.38 5672.85 1875.86 5673.18 1876.57 5673.18 1877.31L5673.18 1877.86C5673.18 1878.94 5672.5 1879.89 5671.48 1880.23L5665.15 1882.34 5658.3 1884.05 5650.86 1885.58 5643.01 1886.78 5634.54 1887.72 5625.66 1888.35 5616.2 1888.79 5606.21 1888.92 5598.93 1888.85 5590.71 1888.66 5581.63 1888.35 5571.59 1887.91 5560.71 1887.29 5548.95 1886.6 5536.25 1885.79 5522.75 1884.85 5503.05 1883.97 5503.05 2088.04C5503.05 2089.07 5502.42 2089.99 5501.47 2090.37 5500.51 2090.74 5499.42 2090.5 5498.72 2089.75L5493.35 2084C5492.91 2083.54 5492.67 2082.93 5492.67 2082.29L5492.67 1878.23C5492.67 1877.53 5492.97 1876.86 5493.49 1876.38 5494.01 1875.91 5494.7 1875.67 5495.4 1875.74L5537.96 1879.68 5541.97 1880.05 5546.42 1880.36 5551.41 1880.61 5556.79 1880.85 5562.72 1880.98 5569.16 1881.1 5575.98 1881.23 5583.34 1881.23 5597 1881.1 5609.82 1880.86 5621.9 1880.36 5633.14 1879.68 5643.59 1878.74 5653.25 1877.69 5662.08 1876.4ZM5498.05 1632.69 5497.67 1633.14 5497.67 1808.89 5498.05 1808.96ZM5335.76 1563.79 5390.92 1626.33C5391.32 1626.78 5391.55 1627.37 5391.55 1627.98L5391.55 1814.1C5391.55 1815.26 5390.75 1816.27 5389.62 1816.54L5382.93 1818.11 5376.43 1820.17 5370.15 1822.72 5364.08 1825.69 5358.18 1829.21 5352.51 1833.22 5347.07 1837.67 5341.82 1842.61 5336.74 1848.12 5331.89 1854.06 5327.28 1860.51 5322.84 1867.47 5318.59 1874.92 5314.58 1882.88 5310.74 1891.34 5307.93 1898.38 5321.89 1906.25 5327.03 1900.46 5333.6 1893.9 5340.32 1888.09 5347.12 1883.1 5354.06 1878.86 5361.12 1875.38 5368.3 1872.75 5375.53 1870.88 5377.91 1870.51C5379.22 1870.3 5380.47 1871.16 5380.74 1872.46 5381.02 1873.77 5380.22 1875.06 5378.94 1875.4L5375.82 1876.21 5368.69 1878.73 5361.72 1882.05 5354.93 1886.16 5348.28 1891.15 5341.74 1897.01 5335.41 1903.7 5329.2 1911.19 5324.83 1917.26 5341.54 1925.22 5346.35 1919.7 5352.43 1913.7 5358.5 1908.55 5364.61 1904.34 5370.77 1901.02 5376.91 1898.67 5382.72 1897.3C5382.85 1897.27 5382.98 1897.25 5383.11 1897.24L5388.86 1896.8C5389.55 1896.75 5390.24 1896.98 5390.75 1897.46 5391.26 1897.93 5391.55 1898.6 5391.55 1899.29L5391.55 2078.04C5391.55 2078.67 5391.31 2079.27 5390.89 2079.73L5335.9 2139.98 5545.48 2139.98 5540.72 2134.87C5539.81 2133.9 5539.83 2132.38 5540.76 2131.42 5541.69 2130.47 5543.21 2130.41 5544.21 2131.3L5561.83 2146.92C5562.61 2147.61 5562.88 2148.71 5562.51 2149.68 5562.14 2150.65 5561.21 2151.29 5560.17 2151.29L5350.32 2151.29 5364.07 2175.79 5597.75 2175.79 5528.12 2084.49C5527.79 2084.06 5527.61 2083.53 5527.61 2082.98L5527.61 1910.17C5527.61 1909.47 5527.9 1908.8 5528.42 1908.32 5528.94 1907.85 5529.63 1907.61 5530.33 1907.68L5545.32 1908.98 5574.72 1910.67 5603.45 1911.23 5613.31 1911.11 5622.73 1910.67 5631.71 1909.99 5640.23 1909.07 5648.32 1907.84 5655.97 1906.36 5663.14 1904.65 5670.02 1902.58C5670.77 1902.36 5671.59 1902.5 5672.23 1902.97 5672.86 1903.44 5673.23 1904.19 5673.23 1904.98L5673.23 2078.1C5673.23 2078.74 5672.99 2079.35 5672.56 2079.81L5616.19 2139.98 5825.32 2139.98 5814.3 2127.51C5813.42 2126.51 5813.47 2125 5814.42 2124.07 5815.37 2123.14 5816.88 2123.11 5817.86 2124.01L5842.92 2146.95C5843.68 2147.64 5843.94 2148.74 5843.57 2149.7 5843.19 2150.66 5842.27 2151.29 5841.23 2151.29L5631.44 2151.29 5644.72 2175.79 5879.55 2175.79 5809.75 2084.5C5809.42 2084.06 5809.23 2083.53 5809.23 2082.98L5809.23 1641.92C5809.23 1641.27 5809.49 1640.64 5809.94 1640.17L5853.21 1595.64 5840.89 1580.3 5784.73 1631.4 5784.73 2087.48C5784.73 2088.52 5784.09 2089.45 5783.12 2089.82 5782.15 2090.18 5781.06 2089.92 5780.37 2089.14L5775.87 2084.08C5775.46 2083.62 5775.23 2083.03 5775.23 2082.42L5775.23 1632.42C5775.23 1631.82 5775.45 1631.25 5775.83 1630.8L5832.89 1563.79 5622.44 1563.79 5672.63 1621.97C5673.02 1622.42 5673.23 1623 5673.23 1623.6L5673.23 1813.67C5673.23 1814.94 5672.28 1816 5671.02 1816.15L5664.54 1816.9 5657.42 1817.6 5649.63 1818.16 5641.2 1818.66 5632.13 1818.98 5622.33 1819.29 5611.94 1819.42 5600.8 1819.48 5568.25 1818.72 5535.75 1816.47 5529.87 1815.91C5528.59 1815.78 5527.61 1814.7 5527.61 1813.42L5527.61 1641.85C5527.61 1641.22 5527.85 1640.61 5528.28 1640.15L5571.92 1593.45 5557.02 1580.06 5503.05 1630.38 5503.05 1812.04C5503.05 1812.79 5502.71 1813.51 5502.12 1813.98 5501.54 1814.46 5500.77 1814.64 5500.04 1814.49L5494.66 1813.36C5493.5 1813.12 5492.67 1812.1 5492.67 1810.92L5492.67 1632.23C5492.67 1631.64 5492.88 1631.07 5493.26 1630.62L5549.43 1563.79ZM5330.22 1558.79 5554.8 1558.79C5555.77 1558.79 5556.65 1559.35 5557.06 1560.24 5557.47 1561.12 5557.34 1562.16 5556.71 1562.9L5515.5 1611.93 5555.28 1574.84C5556.23 1573.95 5557.69 1573.94 5558.66 1574.81L5577.16 1591.43C5577.66 1591.88 5577.95 1592.51 5577.98 1593.18 5578.01 1593.85 5577.77 1594.51 5577.31 1595L5532.61 1642.84 5532.61 1811.14 5536.22 1811.49 5568.6 1813.73 5600.92 1814.48 5611.91 1814.42 5622.27 1814.29 5631.97 1813.98 5641.02 1813.67 5649.34 1813.17 5657.05 1812.61 5664.06 1811.93 5668.23 1811.44 5668.23 1624.53 5615.09 1562.92C5614.45 1562.18 5614.3 1561.14 5614.71 1560.25 5615.12 1559.36 5616.01 1558.79 5616.98 1558.79L5838.3 1558.79C5839.27 1558.79 5840.16 1559.36 5840.57 1560.24 5840.98 1561.13 5840.83 1562.17 5840.2 1562.91L5797.64 1612.89 5839.49 1574.82C5840 1574.35 5840.68 1574.12 5841.37 1574.17 5842.05 1574.23 5842.69 1574.56 5843.12 1575.1L5858.5 1594.23C5859.29 1595.21 5859.22 1596.63 5858.34 1597.53L5814.23 1642.93 5814.23 2082.13 5886.6 2176.77C5887.17 2177.53 5887.27 2178.55 5886.85 2179.4 5886.43 2180.25 5885.56 2180.79 5884.61 2180.79L5643.23 2180.79C5642.32 2180.79 5641.47 2180.29 5641.04 2179.48L5625.04 2149.98C5624.62 2149.21 5624.64 2148.27 5625.09 2147.51 5625.54 2146.76 5626.35 2146.29 5627.23 2146.29L5834.8 2146.29 5832.53 2144.21 5832.22 2144.58C5831.82 2144.83 5831.35 2144.98 5830.86 2144.98L5610.42 2144.98C5609.43 2144.98 5608.52 2144.39 5608.13 2143.47 5607.73 2142.56 5607.92 2141.5 5608.6 2140.77L5668.23 2077.12 5668.23 1908.34 5664.58 1909.44 5657.13 1911.22 5649.27 1912.75 5640.99 1914.01 5632.25 1914.96 5623.11 1915.66 5613.54 1916.1 5603.52 1916.23 5574.62 1915.67 5545.03 1913.97 5532.61 1912.89 5532.61 2082.13 5604.79 2176.78C5605.36 2177.53 5605.46 2178.55 5605.04 2179.4 5604.62 2180.25 5603.75 2180.79 5602.8 2180.79L5362.61 2180.79C5361.71 2180.79 5360.87 2180.3 5360.43 2179.52L5343.87 2150.02C5343.43 2149.24 5343.44 2148.29 5343.89 2147.53 5344.34 2146.76 5345.16 2146.29 5346.05 2146.29L5553.58 2146.29 5551.88 2144.78 5551.23 2144.98 5330.23 2144.98C5329.24 2144.98 5328.35 2144.39 5327.95 2143.49 5327.55 2142.58 5327.72 2141.53 5328.39 2140.79L5386.55 2077.07 5386.55 1901.99 5383.68 1902.21 5378.06 1903.54 5372.58 1905.69 5366.99 1908.74 5361.34 1912.66 5355.67 1917.51 5349.87 1923.26 5344.06 1929.93C5343.32 1930.78 5342.11 1931.03 5341.1 1930.55L5319.97 1920.49C5319.3 1920.17 5318.81 1919.57 5318.63 1918.85 5318.44 1918.13 5318.59 1917.37 5319.02 1916.77L5322.57 1911.84 5321.19 1911.59 5303.57 1901.66C5302.48 1901.04 5302.01 1899.71 5302.48 1898.55L5306.1 1889.49 5310.02 1880.82 5314.13 1872.67 5318.5 1864.99 5323.06 1857.82 5327.83 1851.15 5332.86 1844.96 5338.15 1839.22 5343.65 1834.03 5349.34 1829.36 5355.29 1825.13 5361.51 1821.4 5367.95 1818.23 5374.54 1815.54 5381.42 1813.35 5386.55 1812.13 5386.55 1628.93 5328.35 1562.94C5327.7 1562.2 5327.54 1561.15 5327.94 1560.26 5328.35 1559.36 5329.24 1558.79 5330.22 1558.79Z" fill="#5B9BD5" fill-rule="evenodd"/><path d="M5649.82 1856.45C5629.12 1860.69 5600.01 1862.81 5562.49 1862.81 5542.21 1862.81 5526.98 1862.3 5516.83 1861.28L5474.3 1857.36 5474.3 2061.38 5479.67 2067.15 5479.67 1860.49 5501.96 1861.46C5539.36 1864.15 5567.15 1865.49 5585.35 1865.49 5612.48 1865.49 5633.97 1862.66 5649.82 1857ZM5309.36 1540.42 5533.88 1540.42 5474.3 1611.33 5474.3 1790.01C5476.1 1790.32 5477.89 1790.69 5479.67 1791.12L5479.67 1608.37 5536.07 1555.79 5554.57 1572.41 5509.23 1620.96 5509.23 1792.52 5515.09 1793.06C5536.7 1795.08 5558.32 1796.09 5579.96 1796.09 5610.33 1796.09 5633.62 1794.98 5649.82 1792.76L5649.82 1602.71 5596.1 1540.42 5817.42 1540.42 5756.83 1611.52 5756.83 2061.55 5761.31 2066.61 5761.31 1609.37 5820.29 1555.79 5835.65 1574.91 5790.86 1621.01 5790.86 2062.07 5863.74 2157.43 5622.33 2157.43 5606.34 2127.88 5820.36 2127.88 5795.25 2104.98 5809.96 2121.61 5589.5 2121.61 5649.82 2057.2 5649.82 1884.11C5632.1 1889.91 5609.69 1892.8 5582.6 1892.8 5563.62 1892.8 5544.18 1892.07 5524.3 1890.59L5509.23 1889.29 5509.23 2062.06 5581.87 2157.43 5341.7 2157.43 5325.16 2127.88 5539.3 2127.88 5521.65 2112.25 5530.36 2121.61 5309.36 2121.61 5368.18 2057.14 5368.18 1878.4C5352.8 1878.4 5337.17 1888.06 5321.3 1907.37L5300.14 1897.31C5316.22 1873.57 5334.21 1858.78 5354.11 1852.94L5357.42 1852.09 5355.01 1852.49C5336.21 1856.28 5318.39 1868.28 5301.54 1888.5L5283.89 1878.61C5302.73 1829 5330.82 1800.54 5368.18 1793.24L5368.18 1607.12Z" stroke="#FFFFFF" stroke-width="5" stroke-linejoin="round" stroke-miterlimit="10" fill="#262626" fill-rule="evenodd"/><text fill="#000000" fill-opacity="0" font-family="Arial,Arial_MSFontService,sans-serif" font-size="617.005" x="5283.89" y="2080.3">H</text></g></svg>